<?xml version="1.0" standalone="no"?>
<!DOCTYPE svg PUBLIC "-//W3C//DTD SVG 20010904//EN"
 "http://www.w3.org/TR/2001/REC-SVG-20010904/DTD/svg10.dtd">
<svg version="1.0" xmlns="http://www.w3.org/2000/svg"
 width="700.000000pt" height="700.000000pt" viewBox="0 0 700.000000 700.000000"
 preserveAspectRatio="xMidYMid meet">
<metadata>
Created by potrace 1.11, written by Peter Selinger 2001-2013
</metadata>
<g transform="translate(0.000000,700.000000) scale(0.100000,-0.100000)"
fill="#000000" stroke="none">
<path d="M1170 6985 c-516 -87 -943 -454 -1104 -948 -66 -201 -60 13 -64
-2487 -2 -1607 0 -2288 8 -2345 84 -613 569 -1100 1187 -1194 97 -15 4509 -15
4603 -1 437 69 802 317 1019 695 85 148 148 333 171 500 8 57 10 740 8 2345
-3 2101 -5 2270 -21 2335 -47 193 -119 361 -222 515 -66 101 -259 291 -366
362 -144 96 -318 171 -499 214 -71 17 -199 19 -2360 20 -1812 2 -2301 -1
-2360 -11z m3740 -1035 l0 -190 -582 -583 c-321 -321 -682 -680 -803 -798
-453 -441 -736 -799 -860 -1088 -128 -299 -137 -648 -24 -872 64 -129 217
-244 393 -298 151 -46 446 -81 691 -81 150 0 360 -16 485 -36 203 -34 388
-128 505 -257 71 -77 146 -228 176 -352 18 -73 23 -121 23 -255 1 -91 -3 -191
-7 -222 l-8 -58 -207 0 -207 0 -1 133 c-2 325 -94 484 -326 561 -111 37 -193
45 -553 56 -526 16 -734 46 -954 138 -397 167 -592 538 -568 1077 18 400 149
717 467 1135 200 262 311 381 1053 1133 l619 627 -976 0 -976 0 0 210 0 210
1320 0 1320 0 0 -190z"/>
</g>
</svg>
